<svg width="70" height="70" xmlns="http://www.w3.org/2000/svg" xmlns:xlink="http://www.w3.org/1999/xlink" xml:space="preserve" overflow="hidden"><defs><clipPath id="clip0"><rect x="-70" y="184" width="70" height="70"/></clipPath></defs><g clip-path="url(#clip0)" transform="translate(70 -184)"><path d="M-35 194.208C-33.3958 194.208-32.0833 195.521-32.0833 197.125-32.0833 198.729-33.3958 200.042-35 200.042-36.6042 200.042-37.9167 198.729-37.9167 197.125-37.9167 195.521-36.6042 194.208-35 194.208ZM-10.5729 217.979C-10.6458 217.469-11.0104 217.031-11.4479 216.812-11.8854 216.594-12.4687 216.667-12.9062 217.031L-21.1458 223.375C-21.5833 223.667-21.8021 224.177-21.7292 224.76-21.6562 225.271-21.2917 225.708-20.8542 225.927L-17.7188 227.24C-19.3958 234.458-25.4479 239.854-32.8125 240.729L-32.8125 210.979-14.5833 210.979-14.5833 206.604-32.8125 206.604-32.8125 204.052C-29.3854 202.958-27.2708 199.531-27.7812 195.958-28.3646 192.458-31.4271 189.833-35 189.833-38.5729 189.833-41.6354 192.458-42.2188 196.031-42.7292 199.604-40.6146 203.031-37.1875 204.125L-37.1875 206.604-55.4167 206.604-55.4167 210.979-37.1875 210.979-37.1875 240.729C-44.5521 239.781-50.6042 234.385-52.2812 227.167L-49.1458 225.854C-48.7083 225.635-48.3438 225.198-48.2708 224.688-48.1979 224.177-48.4167 223.667-48.8542 223.375L-57.0938 217.031C-57.5312 216.74-58.0417 216.667-58.5521 216.812-59.0625 217.031-59.3542 217.469-59.4271 217.979L-60.7396 228.333C-60.8125 228.844-60.5938 229.354-60.1562 229.646-59.7188 229.938-59.2083 230.01-58.6979 229.865L-56.3646 228.917C-54.3958 236.208-48.7812 242.042-41.5625 244.302L-35.7292 247.438C-35.2917 247.656-34.7812 247.656-34.3437 247.438L-28.4375 244.229C-21.2187 241.969-15.6771 236.135-13.7083 228.844L-11.375 229.865C-10.8646 230.083-10.3542 230.01-9.91666 229.646-9.47916 229.354-9.26041 228.844-9.33333 228.333L-10.5729 217.979Z" fill="#FFFFFF"/></g></svg>